<?xml version="1.0" standalone="no"?>
<svg id="Nederlands_verkeersbord_C17" width="300" height="300" viewBox="0 0 300 300"
xmlns="http://www.w3.org/2000/svg" version="1.1">

<circle id="witte_cirkel_met_rode_rand" cx="150" cy="150" r="130.5"
fill="#f7fbf5" stroke="#c1121c" stroke-width="39" />

<path fill="#2a2d2f"
       d="M 193.42336,122.95416 L 193.00902,122.95416 C 194.72999,118.77821 198.07486,117.75869 200.9744,117.59556 C 204.82903,117.40797 208.77991,120.30341 209.16244,123.207 C 208.7481,119.92007 215.15237,117.59556 218.49724,117.59556 C 221.97016,117.59556 228.11915,120.21369 228.11915,127.95389 L 228.11915,151.37024 L 221.49221,151.37024 L 221.49221,131.74651 C 221.14149,128.59007 222.12921,124.03078 215.98023,124.03078 C 214.3237,124.03078 212.06198,125.08292 211.74307,127.15459 C 211.2333,130.2784 211.16968,133.52455 211.16968,134.32385 L 211.16968,151.37024 L 204.89347,151.37024 L 204.89347,131.74651 C 204.89347,125.9801 202.34464,124.22652 199.4133,124.22652 C 196.76905,124.22652 194.79361,125.81698 193.74227,128.65532 C 193.13708,130.37627 193.51879,133.52455 193.51879,134.32385 L 193.51879,151.37024 L 187.59329,151.37024 L 187.59329,118.58246 L 193.42336,118.58246 L 193.42336,122.95416" />

<path fill="#2a2d2f"
       d="M 92.84073,83.73117 C 97.52404,83.02974 100.96515,80.95808 103.03602,76.30906 L 113.03964,76.30906 L 113.03964,151.46811 L 101.95287,151.46811 L 101.95287,92.84161 L 92.84073,92.84161 L 92.84073,83.73117" />

<path fill="#2a2d2f"
       d="M 125.05132,113.80295 C 125.05132,96.63422 131.2003,75.19167 150.50773,75.19167 C 169.81515,75.19167 176.05956,95.80229 176.05956,112.75896 C 176.05956,137.31717 166.5967,152.83834 150.50773,152.83834 C 134.41793,152.83834 125.05132,138.14909 125.05132,113.80295 z M 165.13185,113.10967 C 165.13185,95.29661 157.67624,86.37377 150.38049,86.37377 C 143.08392,86.37377 136.55323,95.64733 136.55323,113.46039 C 136.55323,133.7203 143.08392,141.65624 150.38049,141.65624 C 157.67624,141.65624 165.13185,133.36958 165.13185,113.10967" />

<path fill="#2a2d2f"
       d="M 103.22688,191.70246 L 106.25365,178.70969 C 107.49666,175.55326 105.87113,173.06563 102.84435,174.85183 L 74.32935,194.69578 C 71.74872,196.5146 71.74872,198.01533 74.32935,199.826 L 102.84435,219.6781 C 105.87113,221.4643 107.49666,218.97667 106.25365,215.82024 L 103.25869,202.94981 L 202.08935,202.94981 L 199.03077,215.88549 C 197.78857,219.04192 199.4451,221.52955 202.47188,219.74335 L 230.98688,199.89125 C 233.5357,198.10505 233.5357,196.57985 230.98688,194.79365 L 202.47188,174.9497 C 199.4451,173.1635 197.78857,175.65113 199.03077,178.76679 L 203.10888,191.80034 L 103.22688,191.70246" />

</svg>